<?xml version="1.0"?>
<svg xmlns="http://www.w3.org/2000/svg" viewBox="0 0 24 24">
    <path d="M 12 2 C 8.1406369 2 5 5.1838534 5 9.0625 C 5 11.495094 6.2407501 13.630403 7.40625 15.1875 C 8.5717499 16.744597 9.75 17.75 9.75 17.75 L 10.03125 18 L 10.375 18 L 11 18 L 13 18 L 13.59375 18 L 13.96875 18 L 14.25 17.75 C 14.25 17.75 15.425607 16.744581 16.59375 15.1875 C 17.761893 13.630419 19 11.495895 19 9.0625 C 19 5.1838534 15.859363 2 12 2 z M 10.0625 4.40625 C 10.071478 4.4024207 10.084745 4.4100277 10.09375 4.40625 C 9.48125 5.33 9 6.709 9 8.5 C 9 11.681446 10.010337 13.867033 10.59375 15.78125 C 10.294697 15.509549 9.7522653 15.00502 9 14 C 7.9704999 12.624597 7 10.791906 7 9.0625 C 7 6.9569849 8.2669104 5.1721047 10.0625 4.40625 z M 13.9375 4.40625 C 15.73309 5.1721047 17 6.9569849 17 9.0625 C 17 10.791105 16.031857 12.624581 15 14 C 14.275912 14.965176 13.7559 15.464907 13.4375 15.75 C 14.023742 13.857233 15 11.659668 15 8.5 C 15 6.6889951 14.532683 5.3159223 13.9375 4.40625 z M 10 19 L 10 21 C 10 21.552 10.448 22 11 22 L 13 22 C 13.552 22 14 21.552 14 21 L 14 19 L 10 19 z"/>
</svg>
