{
  "asset": {
    "extras": {
      "author": "Styro (https://sketchfab.com/Styro4)",
      "license": "CC-BY-4.0 (http://creativecommons.org/licenses/by/4.0/)",
      "source": "https://sketchfab.com/3d-models/hot-air-balloon-low-poly-a420e9196b744919806ae532b3a11bf7",
      "title": "Hot Air Balloon - Low Poly"
    },
    "generator": "gltfeditor.com",
    "version": "2.0"
  },
  "buffers": [
    {
      "uri": "data:application/octet-stream;base64,",
      "byteLength": 60768
    }
  ],
  "bufferViews": [
    {
      "buffer": 0,
      "byteOffset": 0,
      "byteLength": 38448,
      "byteStride": 24,
      "target": 34962
    },
    {
      "buffer": 0,
      "byteOffset": 38448,
      "byteLength": 12816,
      "byteStride": 8,
      "target": 34962
    },
    {
      "buffer": 0,
      "byteOffset": 51264,
      "byteLength": 9504,
      "target": 34963
    }
  ],
  "accessors": [
    {
      "bufferView": 0,
      "byteOffset": 0,
      "componentType": 5126,
      "normalized": false,
      "count": 1602,
      "min": [
        -0.9961394667625427,
        -0.9975414276123047,
        -1
      ],
      "max": [
        0.9961394667625427,
        0.9961394667625427,
        1
      ],
      "type": "VEC3"
    },
    {
      "bufferView": 0,
      "byteOffset": 12,
      "componentType": 5126,
      "normalized": false,
      "count": 1602,
      "min": [
        -22.36433219909668,
        -22.64310646057129,
        -3.011540174484253
      ],
      "max": [
        22.313583374023438,
        22.64310073852539,
        92.08309936523438
      ],
      "type": "VEC3"
    },
    {
      "bufferView": 1,
      "byteOffset": 0,
      "componentType": 5126,
      "normalized": false,
      "count": 1602,
      "min": [
        0,
        0.026284869760274887
      ],
      "max": [
        1,
        1
      ],
      "type": "VEC2"
    },
    {
      "bufferView": 2,
      "byteOffset": 0,
      "componentType": 5125,
      "normalized": false,
      "count": 2376,
      "min": [
        0
      ],
      "max": [
        1601
      ],
      "type": "SCALAR"
    }
  ],
  "scene": 0,
  "scenes": [
    {
      "nodes": [
        4
      ]
    }
  ],
  "nodes": [
    {
      "name": "Hot Air Balloon_Material.001_0",
      "mesh": 0
    },
    {
      "name": "Hot Air Balloon",
      "children": [
        0
      ],
      "matrix": [
        25.874149322509766,
        0,
        0,
        0,
        0,
        -0.0000034764211704896297,
        -25.874149322509766,
        0,
        0,
        19.524816513061523,
        -0.000002623331965878606,
        0,
        0,
        57.83797073364258,
        0,
        1
      ]
    },
    {
      "name": "RootNode",
      "children": [
        1
      ]
    },
    {
      "name": "59e77a23ceb44029a1d8b7668bedda12.fbx",
      "children": [
        2
      ],
      "matrix": [
        0.009999999776482582,
        0,
        0,
        0,
        0,
        3.42285422227917e-10,
        0.009999999776482582,
        0,
        0,
        -0.009999999776482582,
        3.42285422227917e-10,
        0,
        0,
        0,
        0,
        1
      ]
    },
    {
      "name": "Sketchfab_model",
      "children": [
        3
      ],
      "matrix": [
        1,
        0,
        0,
        0,
        0,
        3.4228534673275135e-8,
        -0.9999997615814209,
        0,
        0,
        0.9999997615814209,
        3.4228534673275135e-8,
        0,
        0,
        0,
        0,
        1
      ]
    }
  ],
  "meshes": [
    {
      "primitives": [
        {
          "material": 0,
          "mode": 4,
          "attributes": {
            "NORMAL": 0,
            "POSITION": 1,
            "TEXCOORD_0": 2
          },
          "indices": 3
        }
      ]
    }
  ],
  "materials": [
    {
      "pbrMetallicRoughness": {
        "baseColorFactor": [
          1,
          1,
          1,
          1
        ],
        "baseColorTexture": {
          "index": 0,
          "texCoord": 0
        }
      },
      "emissiveFactor": [
        0,
        0,
        0
      ],
      "alphaMode": "OPAQUE",
      "doubleSided": false,
      "extensions": {
        "KHR_materials_unlit": {}
      }
    }
  ],
  "textures": [
    {
      "sampler": 0,
      "name": "base",
      "source": 0
    }
  ],
  "samplers": [
    {
      "magFilter": 9987,
      "minFilter": 9729,
      "wrapS": 33071,
      "wrapT": 33071
    }
  ],
  "images": [
    {
      "uri": "data:image/png;base64,",
      "mimeType": "image/png"
    }
  ],
  "extensionsRequired": [
    "KHR_materials_unlit"
  ],
  "extensionsUsed": [
    "KHR_materials_unlit"
  ]
}